HIERARCHY
ROOT Hips
{
	OFFSET 0.000000 0.000000 0.000000
	CHANNELS 6 Xposition Yposition Zposition Zrotation Yrotation Xrotation 
	JOINT LHipJoint
	{
		OFFSET 0.000000 0.000000 0.000000
		CHANNELS 3 Zrotation Yrotation Xrotation
		JOINT LeftUpLeg
		{
			OFFSET 1.363060 -1.794630 0.839290
			CHANNELS 3 Zrotation Yrotation Xrotation
			JOINT LeftLeg
			{
				OFFSET 2.448110 -6.726130 0.000000
				CHANNELS 3 Zrotation Yrotation Xrotation
				JOINT LeftFoot
				{
					OFFSET 2.562200 -7.039590 0.000000
					CHANNELS 3 Zrotation Yrotation Xrotation
					JOINT LeftToeBase
					{
						OFFSET 0.157640 -0.433110 2.322550
						CHANNELS 3 Zrotation Yrotation Xrotation
						End Site
						{
							OFFSET 0.000000 0.000000 0.000000
						}
					}
				}
			}
		}
	}
	JOINT RHipJoint
	{
		OFFSET 0.000000 0.000000 0.000000
		CHANNELS 3 Zrotation Yrotation Xrotation
		JOINT RightUpLeg
		{
			OFFSET -1.305520 -1.794630 0.839290
			CHANNELS 3 Zrotation Yrotation Xrotation
			JOINT RightLeg
			{
				OFFSET -2.542530 -6.985550 0.000000
				CHANNELS 3 Zrotation Yrotation Xrotation
				JOINT RightFoot
				{
					OFFSET -2.568260 -7.056230 0.000000
					CHANNELS 3 Zrotation Yrotation Xrotation
					JOINT RightToeBase
					{
						OFFSET -0.164730 -0.452590 2.363150
						CHANNELS 3 Zrotation Yrotation Xrotation
						End Site
						{
							OFFSET 0.000000 0.000000 0.000000
						}
					}
				}
			}
		}
	}
	JOINT LowerBack
	{
		OFFSET 0.000000 0.000000 0.000000
		CHANNELS 3 Zrotation Yrotation Xrotation
		JOINT Spine
		{
			OFFSET 0.028270 2.035590 -0.193380
			CHANNELS 3 Zrotation Yrotation Xrotation
			JOINT Spine1
			{
				OFFSET 0.056720 2.048850 -0.042750
				CHANNELS 3 Zrotation Yrotation Xrotation
				JOINT Neck
				{
					OFFSET 0.000000 0.000000 0.000000
					CHANNELS 3 Zrotation Yrotation Xrotation
					JOINT Neck1
					{
						OFFSET -0.054170 1.746240 0.172020
						CHANNELS 3 Zrotation Yrotation Xrotation
						JOINT Head
						{
							OFFSET 0.104070 1.761360 -0.123970
							CHANNELS 3 Zrotation Yrotation Xrotation
							End Site
							{
								OFFSET 0.000000 0.000000 0.000000
							}
						}
					}
				}
				JOINT LeftShoulder
				{
					OFFSET 0.000000 0.000000 0.000000
					CHANNELS 3 Zrotation Yrotation Xrotation
					JOINT LeftArm
					{
						OFFSET 3.362410 1.200890 -0.311210
						CHANNELS 3 Zrotation Yrotation Xrotation
						JOINT LeftForeArm
						{
							OFFSET 4.983000 -0.000000 -0.000000
							CHANNELS 3 Zrotation Yrotation Xrotation
							JOINT LeftHand
							{
								OFFSET 3.483560 -0.000000 -0.000000
								CHANNELS 3 Zrotation Yrotation Xrotation
								JOINT LeftFingerBase
								{
									OFFSET 0.000000 0.000000 0.000000
									CHANNELS 3 Zrotation Yrotation Xrotation
									JOINT LeftHandIndex1
									{
										OFFSET 0.715260 -0.000000 -0.000000
										CHANNELS 3 Zrotation Yrotation Xrotation
										End Site
										{
											OFFSET 0.000000 0.000000 0.000000
										}
									}
								}
								JOINT LThumb
								{
									OFFSET 0.000000 0.000000 0.000000
									CHANNELS 3 Zrotation Yrotation Xrotation
									End Site
									{
										OFFSET 0.000000 0.000000 0.000000
									}
								}
							}
						}
					}
				}
				JOINT RightShoulder
				{
					OFFSET 0.000000 0.000000 0.000000
					CHANNELS 3 Zrotation Yrotation Xrotation
					JOINT RightArm
					{
						OFFSET -3.136600 1.374050 -0.404650
						CHANNELS 3 Zrotation Yrotation Xrotation
						JOINT RightForeArm
						{
							OFFSET -5.241900 -0.000000 -0.000000
							CHANNELS 3 Zrotation Yrotation Xrotation
							JOINT RightHand
							{
								OFFSET -3.444170 -0.000000 -0.000000
								CHANNELS 3 Zrotation Yrotation Xrotation
								JOINT RightFingerBase
								{
									OFFSET 0.000000 0.000000 0.000000
									CHANNELS 3 Zrotation Yrotation Xrotation
									JOINT RightHandIndex1
									{
										OFFSET -0.622530 -0.000000 -0.000000
										CHANNELS 3 Zrotation Yrotation Xrotation
										End Site
										{
											OFFSET 0.000000 0.000000 0.000000
										}
									}
								}
								JOINT RThumb
								{
									OFFSET 0.000000 0.000000 0.000000
									CHANNELS 3 Zrotation Yrotation Xrotation
									End Site
									{
										OFFSET 0.000000 0.000000 0.000000
									}
								}
							}
						}
					}
				}
			}
		}
	}
}
MOTION
Frames: 6
Frame Time: 0.008333
-5.075906 17.845732 -0.296219 0.875145 72.653029 -0.685269 -10.724793 -0.457883 4.887809 -7.655524 -9.112522 -6.986991 2.752725 13.399109 41.158150 6.712683 -20.039746 11.391439 3.823800 -11.922200 -35.457300 8.412633 4.040646 -2.447230 -3.700062 20.444626 -22.249869 4.042067 -4.292003 14.733001 -9.154489 18.576516 44.859625 -1.743800 8.310700 -23.662000 -0.123220 -6.616096 15.070540 1.816255 -7.760736 -1.324799 1.083622 -4.402657 -4.736729 5.653744 9.239850 0.458360 4.953055 11.578697 16.028452 -2.562500 7.000600 3.450500 -0.053723 -7.119246 3.064212 -57.065334 -17.897269 8.816381 62.371128 -49.778823 -44.104538 0.445669 -2.515354 -25.118374 14.570844 25.086150 7.185100 -7.125000 0.000000 0.000000 -16.751000 57.577200 -5.256800 5.838554 6.923012 0.919008 64.388661 -25.866064 -8.093530 -20.851714 31.457540 -9.780399 1.646357 4.737406 -5.926526 -18.396086 -29.634586 11.827400 7.125000 0.000000 0.000000 15.725900 -65.051400 -7.713500 
-5.315985 17.877735 -0.479946 1.392716 70.877501 0.095296 -11.055273 -0.729078 5.101516 -8.064755 -8.415511 -7.607048 1.536733 12.549592 39.039881 6.303703 -22.509940 20.053240 1.019700 6.424100 18.019900 8.473048 4.434874 -2.657180 -3.095336 18.340351 -23.410501 4.096524 -4.171737 14.153190 -9.053022 16.605145 46.968949 -1.675000 8.153500 -23.181400 -0.527644 -7.027404 15.493958 1.928593 -8.333229 -1.450331 1.670643 -4.694294 -5.279339 6.094194 9.382261 1.057477 4.197516 11.995673 16.091545 -2.813400 7.239000 3.270100 0.081544 -7.058307 3.054544 -57.451531 -17.404189 7.958656 61.746802 -49.603773 -43.576192 0.391446 -2.529522 -25.532759 15.461391 24.836857 7.589700 -7.125000 0.000000 0.000000 -15.584000 57.522900 -4.857600 5.817835 6.986620 0.898350 64.882652 -26.749962 -8.078393 -21.683176 32.243785 -10.322140 1.766213 4.661083 -4.752124 -19.153393 -29.804480 12.340800 7.125000 0.000000 0.000000 14.911300 -65.383000 -7.419700 
-5.550217 17.898681 -0.661654 2.687262 69.047665 1.676342 -11.366485 -0.917246 5.183595 -8.777342 -7.802309 -8.179294 1.239290 12.164069 37.623185 6.665348 -23.004749 18.095007 1.105700 6.681200 18.774300 8.376112 4.676650 -2.913449 -2.428849 16.207733 -24.718817 3.916308 -4.450892 14.145810 -8.625524 12.574343 46.888441 -2.194700 9.260300 -26.613000 -1.147600 -7.342218 15.847305 2.000911 -8.845514 -1.603518 2.217138 -4.940093 -5.826010 6.525895 9.537728 1.552587 3.608967 12.373815 16.054770 -3.228000 7.464000 3.375100 0.185662 -7.020455 3.039518 -57.795874 -16.759769 7.193595 61.329701 -49.503041 -43.263590 0.372180 -2.568974 -26.448473 16.386875 25.172867 8.172400 -7.125000 0.000000 0.000000 -14.739800 58.074000 -4.783200 5.807718 7.049169 0.882669 65.359026 -27.268393 -8.227173 -22.285052 32.750496 -10.691333 1.929347 4.495173 -2.916459 -19.729863 -29.407498 12.543200 7.125000 0.000000 0.000000 13.760600 -65.060600 -6.734300 
-5.761483 17.917288 -0.833899 2.739908 66.646519 2.178449 -11.522105 -1.022707 5.182493 -9.145863 -6.842691 -9.095390 1.244322 12.008242 36.612342 7.238613 -22.390788 13.890295 0.364400 3.878000 10.733600 8.347996 4.628882 -3.119087 -1.474473 15.474148 -25.484310 3.511199 -5.168589 15.166783 -7.599291 8.310747 42.933658 -3.676600 11.717100 -34.738400 -1.260798 -7.484319 15.769321 2.057773 -9.067619 -1.682835 2.465300 -5.030469 -6.005653 6.802133 9.700452 1.844649 3.011463 12.779931 15.936898 -3.592300 7.679600 3.436500 0.275991 -6.940932 3.034633 -58.114433 -16.111820 6.315541 61.198644 -49.505998 -43.251591 0.398910 -2.602919 -27.293585 16.875402 25.751864 8.597500 -7.125000 0.000000 0.000000 -14.558900 58.780300 -4.971100 5.803292 7.125390 0.888371 65.824163 -27.434499 -8.159683 -22.950713 33.315484 -11.122342 2.110941 4.379620 -1.061843 -20.585431 -29.538037 13.114500 7.125000 0.000000 0.000000 12.745200 -65.377400 -6.322900 
-5.976363 17.931216 -1.000296 2.744402 64.094509 2.594769 -11.591125 -1.231301 5.053948 -9.505541 -5.801641 -10.516251 1.158983 11.944669 36.304134 7.243044 -21.645851 13.823113 0.662500 5.205800 14.496500 8.417689 4.525508 -3.313392 -0.899910 15.999109 -25.817728 2.912412 -6.139697 16.727341 -6.040228 3.278477 39.639642 -3.050900 10.777100 -31.531600 -1.323929 -7.561845 15.672300 2.080606 -9.208175 -1.700730 2.574910 -5.070844 -5.877292 6.815609 9.934153 1.618395 2.553298 13.254551 15.821772 -3.780500 7.902400 3.553300 0.325790 -6.853746 3.032062 -58.350672 -15.541731 5.208952 61.197377 -49.540164 -43.385841 0.421277 -2.606026 -27.837185 17.252658 25.750004 8.794300 -7.125000 0.000000 0.000000 -14.151600 58.871100 -4.859400 5.776655 7.238812 0.910474 66.375047 -27.105283 -7.775815 -23.771219 33.959194 -11.646775 2.178506 4.235871 0.221083 -20.800545 -29.331683 13.130300 7.125000 0.000000 0.000000 12.270000 -65.139900 -6.016500 
-6.196454 17.923561 -1.159888 2.792841 61.687454 2.996683 -11.624948 -1.437862 4.783144 -9.893724 -5.306083 -11.841543 1.125207 11.976401 36.305284 7.043337 -20.160318 14.062245 0.895700 6.032000 16.877300 8.372340 4.352398 -3.482765 -0.234733 16.666786 -26.134615 2.006095 -7.528602 19.257090 -3.678584 -2.513505 34.917029 -2.057100 8.984100 -25.745600 -1.165906 -7.568339 15.426746 2.006336 -9.228447 -1.602773 2.190766 -5.059038 -5.302296 6.875408 10.104477 0.997836 2.269676 13.609084 15.730749 -3.837300 8.049300 3.682300 0.306735 -6.768348 3.046737 -58.170314 -15.341459 4.265040 61.204901 -49.564795 -43.495169 0.427343 -2.599332 -28.011388 17.559195 25.348736 8.835400 -7.125000 0.000000 0.000000 -13.580300 58.543700 -4.551400 5.727027 7.384182 0.932664 67.485400 -26.064144 -8.031524 -24.448759 34.390718 -12.035806 2.187902 4.042435 1.185199 -20.597452 -28.585915 12.673200 7.125000 0.000000 0.000000 11.872000 -64.195700 -5.558400 
